<?xml version="1.0" standalone="no"?>
<!DOCTYPE svg PUBLIC "-//W3C//DTD SVG 20010904//EN"
 "http://www.w3.org/TR/2001/REC-SVG-20010904/DTD/svg10.dtd">
<svg version="1.0" xmlns="http://www.w3.org/2000/svg"
 width="870.000000pt" height="870.000000pt" viewBox="0 0 870.000000 870.000000"
 preserveAspectRatio="xMidYMid meet">
<metadata>
Created by potrace 1.11, written by Peter Selinger 2001-2013
</metadata>
<g transform="translate(0.000000,870.000000) scale(0.100000,-0.100000)"
fill="#000000" stroke="none">
<path d="M4290 6738 c0 -4 -16 -8 -35 -8 -19 0 -35 -4 -35 -9 0 -5 -9 -7 -20
-4 -11 3 -20 1 -20 -5 0 -5 -8 -9 -17 -9 -35 0 -44 -3 -38 -13 3 -5 0 -7 -8
-4 -8 3 -18 0 -22 -5 -3 -6 -11 -9 -16 -6 -5 4 -9 1 -9 -4 0 -6 -7 -11 -15
-11 -8 0 -24 -9 -35 -20 -11 -11 -20 -18 -20 -15 0 3 -20 -13 -44 -37 -25 -23
-42 -46 -40 -50 3 -4 0 -8 -6 -8 -6 0 -9 -4 -6 -9 4 -5 2 -11 -3 -13 -5 -1
-11 -12 -13 -23 -1 -11 -9 -26 -16 -34 -9 -9 -10 -17 -3 -25 7 -9 7 -16 -1
-24 -7 -7 -8 -12 -4 -12 5 0 3 -7 -4 -15 -8 -10 -9 -15 -2 -15 6 0 11 -10 10
-22 -2 -41 2 -59 10 -54 7 4 11 -15 13 -67 0 -12 5 -17 14 -13 9 3 12 0 9 -8
-3 -7 2 -26 11 -42 20 -39 19 -51 -5 -57 -11 -3 -20 0 -20 5 0 7 -5 6 -14 -1
-10 -8 -16 -9 -21 -1 -7 11 -26 14 -23 3 3 -8 -6 -14 -19 -12 -13 1 -128 0
-133 -1 -3 -1 -27 -1 -55 0 -181 7 -214 6 -208 -3 4 -6 1 -7 -8 -1 -8 5 -21 9
-29 9 -8 0 -19 3 -25 6 -5 3 -26 6 -44 8 -19 1 -37 3 -39 6 -2 2 -15 0 -27 -5
-16 -6 -25 -5 -29 3 -3 9 -7 8 -15 -3 -8 -12 -11 -12 -11 -1 0 11 -3 11 -15 1
-8 -7 -15 -8 -15 -3 0 5 -12 8 -27 7 -95 -6 -119 -10 -125 -19 -5 -6 -8 -5 -8
2 0 8 -7 10 -22 5 -13 -4 -32 -7 -43 -7 -11 0 -23 -4 -27 -10 -5 -6 -8 -5 -8
3 0 9 -5 10 -18 3 -11 -6 -24 -6 -34 0 -9 5 -19 6 -21 1 -3 -4 -25 -6 -50 -4
-53 4 -57 12 -57 112 0 36 -5 83 -11 105 -5 22 -11 47 -13 55 -10 54 -20 81
-32 91 -8 6 -14 17 -14 24 0 12 -20 39 -57 79 -13 14 -14 17 -3 12 8 -4 6 0
-4 8 -11 9 -26 16 -34 16 -7 0 -10 5 -7 10 3 6 -1 10 -9 10 -8 0 -22 7 -30 16
-9 8 -16 12 -16 7 0 -4 -4 -2 -9 5 -4 7 -18 14 -29 15 -12 1 -22 6 -22 11 0 5
-3 7 -6 3 -4 -3 -22 0 -41 8 -40 17 -113 22 -133 10 -9 -6 -11 -4 -5 5 5 7 4
11 -1 7 -5 -3 -32 -6 -59 -8 -28 -1 -55 -6 -61 -11 -12 -9 -47 -19 -71 -20 -7
-1 -15 -8 -17 -15 -3 -8 -10 -11 -16 -8 -13 8 -91 -35 -84 -46 3 -5 -1 -6 -9
-4 -7 3 -37 -16 -68 -45 -29 -27 -57 -50 -61 -50 -5 0 -8 -5 -8 -12 0 -6 -6
-19 -14 -27 -8 -9 -16 -23 -18 -31 -2 -8 -11 -23 -21 -34 -9 -11 -15 -28 -11
-38 3 -10 0 -18 -6 -18 -6 0 -9 -4 -5 -9 3 -5 1 -12 -5 -16 -6 -4 -7 -12 -3
-18 11 -17 13 -38 3 -32 -4 3 -7 -6 -6 -20 0 -14 6 -25 11 -25 7 0 7 -3 0 -8
-15 -11 -17 -32 -3 -32 9 0 8 -4 -2 -10 -11 -7 -12 -10 -2 -10 8 0 12 -6 9
-12 -2 -7 -1 -23 4 -35 11 -31 -23 -50 -88 -49 -29 1 -53 -2 -53 -6 0 -3 -13
-3 -30 2 -16 5 -30 5 -30 1 0 -5 -11 -7 -25 -6 -14 2 -25 -2 -25 -8 0 -7 -4
-6 -9 2 -8 12 -12 12 -25 2 -12 -10 -16 -11 -16 -1 0 8 -6 9 -17 5 -20 -8 -24
-8 -66 -2 -15 2 -30 0 -33 -5 -3 -5 -12 -4 -20 3 -11 9 -14 8 -14 -2 0 -10 -3
-10 -8 -3 -8 12 -40 12 -60 0 -7 -4 -12 -2 -12 5 0 8 -4 8 -15 -1 -12 -10 -15
-10 -15 0 0 10 -3 10 -14 1 -10 -9 -16 -9 -21 -1 -5 8 -11 8 -19 1 -9 -7 -16
-7 -23 0 -8 8 -17 7 -33 -1 -12 -7 -20 -8 -16 -2 3 6 -12 8 -39 7 -25 -2 -61
1 -80 5 -19 4 -35 4 -35 -1 0 -5 -10 -5 -23 -1 -27 9 -48 9 -64 -1 -6 -4 -14
-3 -18 2 -4 7 -15 7 -31 1 -14 -6 -23 -6 -20 -1 11 17 -22 20 -36 4 -10 -12
-10 -17 -1 -20 7 -2 9 -11 6 -20 -4 -10 -2 -14 4 -10 7 5 9 0 6 -13 -3 -11 0
-26 6 -34 7 -8 11 -18 10 -22 -1 -5 1 -16 4 -24 16 -40 51 -166 49 -177 -2 -7
1 -13 7 -13 5 0 7 -10 3 -22 -3 -14 -1 -19 6 -14 7 4 10 -1 7 -14 -6 -31 -14
-39 -35 -35 -14 3 -20 -2 -20 -13 0 -14 -2 -15 -9 -3 -8 12 -12 12 -24 2 -10
-8 -17 -9 -22 -1 -4 6 -13 7 -23 1 -9 -4 -22 -7 -28 -4 -6 2 -16 -3 -23 -11
-6 -7 -21 -12 -31 -9 -13 3 -22 -1 -26 -12 -5 -12 -9 -13 -14 -5 -6 9 -13 7
-27 -7 -11 -11 -25 -17 -31 -15 -7 2 -12 -1 -12 -7 0 -6 -6 -10 -12 -8 -7 1
-12 -4 -10 -11 1 -8 -2 -11 -8 -7 -11 7 -110 -88 -110 -106 0 -6 -5 -7 -12 -3
-8 5 -9 2 -5 -9 3 -10 2 -17 -3 -17 -12 0 -51 -76 -43 -84 4 -3 1 -6 -5 -6 -7
0 -12 -11 -12 -25 0 -14 -3 -25 -7 -25 -5 0 -8 -10 -9 -22 0 -13 -3 -35 -7
-50 -3 -16 -1 -29 6 -32 7 -2 4 -5 -7 -5 -15 -1 -16 -4 -7 -15 9 -11 9 -16 0
-21 -16 -10 -5 -129 15 -177 4 -9 5 -21 2 -27 -3 -5 2 -17 11 -27 11 -11 14
-19 7 -21 -13 -4 5 -53 19 -53 5 0 6 -4 2 -9 -9 -16 48 -123 58 -108 5 8 6 5
3 -9 -4 -14 2 -27 19 -42 14 -12 25 -29 25 -38 0 -8 4 -13 8 -10 4 2 17 -9 27
-25 11 -16 26 -29 33 -29 6 0 12 -4 12 -10 0 -5 7 -10 15 -10 8 0 15 -4 15
-10 0 -5 9 -10 21 -10 11 0 17 -4 14 -10 -3 -5 2 -10 12 -10 11 0 23 -4 28 -8
17 -14 90 -32 134 -32 26 0 41 -5 41 -12 0 -10 2 -10 8 -1 4 6 21 13 37 16 17
3 43 8 59 12 35 10 46 -5 36 -50 -5 -21 -3 -38 4 -46 8 -9 8 -10 0 -6 -7 4
-15 0 -18 -9 -4 -10 -2 -13 7 -8 8 5 7 2 -2 -9 -8 -10 -11 -20 -8 -24 4 -3 2
-12 -4 -20 -6 -7 -8 -13 -5 -13 4 0 2 -10 -5 -21 -6 -12 -7 -19 -2 -16 5 4 10
0 10 -8 0 -8 -5 -13 -11 -12 -6 1 -10 -5 -8 -15 1 -9 -6 -39 -17 -66 -11 -27
-17 -53 -14 -56 4 -3 1 -6 -7 -6 -10 0 -10 -4 1 -17 8 -9 9 -14 3 -10 -10 6
-40 -66 -36 -85 1 -5 -3 -8 -9 -8 -8 0 -7 -6 2 -17 12 -14 12 -16 0 -8 -11 6
-13 4 -8 -8 4 -12 1 -17 -10 -17 -9 0 -13 -3 -10 -7 4 -3 2 -12 -4 -19 -6 -8
-9 -21 -5 -29 3 -8 1 -15 -4 -15 -5 0 -7 -11 -4 -25 3 -16 0 -25 -8 -25 -9 0
-8 -3 2 -10 9 -6 11 -10 3 -10 -7 0 -10 -7 -7 -15 4 -8 10 -12 15 -9 5 3 6 -2
3 -10 -6 -17 17 -46 37 -46 7 0 9 -3 6 -7 -10 -9 25 -32 50 -33 12 0 25 -5 28
-10 4 -7 12 -7 25 0 13 7 21 7 25 0 3 -5 13 -10 21 -10 9 0 12 5 8 11 -4 8 -1
8 12 1 20 -10 47 -5 39 7 -2 5 7 6 20 3 17 -3 25 0 25 9 0 12 2 12 9 0 6 -9
11 -10 15 -3 4 6 13 9 21 5 8 -3 15 0 15 7 0 6 3 9 8 7 4 -3 24 3 45 13 20 10
34 13 30 7 -3 -7 3 -3 15 7 12 11 22 16 22 11 0 -4 7 -2 15 5 9 7 18 10 22 6
12 -11 12 -56 0 -56 -7 -1 -6 -6 4 -13 9 -7 14 -18 11 -26 -2 -8 0 -11 5 -8 6
4 9 -5 7 -23 -2 -16 2 -35 9 -42 11 -12 16 -26 21 -53 1 -6 12 -28 24 -48 12
-21 22 -40 22 -43 0 -3 12 -19 28 -34 15 -16 32 -35 38 -42 6 -7 22 -20 34
-28 12 -8 30 -23 39 -32 9 -9 29 -19 45 -22 15 -3 33 -10 40 -15 7 -6 22 -9
34 -6 13 2 21 -1 19 -7 -1 -8 26 -11 88 -11 131 2 137 2 131 11 -2 4 4 9 15
10 10 1 28 3 39 4 11 1 20 5 20 9 0 3 12 11 26 17 14 7 23 16 19 22 -3 5 4 7
16 5 15 -3 19 0 15 11 -3 8 -2 13 3 9 5 -3 17 2 25 11 9 8 16 13 16 9 0 -3 14
10 30 28 17 19 30 40 30 46 0 6 4 11 8 11 11 0 43 56 35 64 -3 3 0 6 7 6 7 0
10 3 7 7 -4 3 -2 12 4 20 9 10 8 13 0 13 -8 0 -6 6 4 16 9 9 14 23 11 30 -3 7
-1 16 3 19 5 3 8 18 7 35 -1 16 1 30 5 30 4 0 6 8 4 18 -1 9 1 24 6 33 4 9 4
20 -1 25 -15 16 -15 94 0 104 8 5 18 6 23 3 6 -3 56 -7 113 -9 56 -1 112 -8
123 -14 15 -7 21 -7 21 0 0 7 7 7 23 -2 12 -6 29 -13 37 -14 40 -8 118 -24
140 -29 14 -4 31 -7 38 -7 6 -1 12 -6 12 -11 0 -5 9 -7 20 -4 11 3 23 1 26 -4
3 -5 11 -9 17 -8 20 3 77 -13 77 -21 0 -5 8 -7 18 -5 9 1 26 -2 37 -8 18 -9
56 -17 93 -20 6 0 12 -3 12 -7 0 -4 6 -7 13 -7 6 0 30 -4 52 -8 87 -16 204
-24 220 -16 34 18 108 19 140 1 31 -17 142 -59 173 -65 9 -2 28 -7 42 -13 14
-5 35 -8 47 -7 12 1 20 -2 17 -6 -6 -11 62 -23 77 -13 8 5 10 3 4 -6 -6 -10
-3 -12 13 -8 13 4 22 1 22 -5 0 -6 3 -7 7 -4 3 4 13 1 21 -6 13 -10 14 -9 7 3
-6 12 -5 13 5 3 11 -10 16 -9 27 5 10 13 13 14 11 2 -2 -8 4 -15 12 -15 8 0
21 -4 29 -9 8 -5 16 -3 22 5 7 12 9 12 9 0 0 -9 8 -11 25 -7 14 4 25 2 25 -4
0 -6 9 -6 25 0 16 6 26 6 31 -1 4 -8 9 -7 15 2 7 12 9 12 9 0 0 -8 6 -11 17
-7 9 4 20 1 25 -6 6 -11 8 -10 8 0 0 7 5 10 12 6 6 -4 59 -6 117 -5 107 1 143
5 160 16 5 3 12 1 16 -5 3 -5 11 -10 16 -10 6 0 8 4 5 8 -3 5 1 9 9 9 8 0 15
-4 15 -8 0 -5 11 -4 24 1 13 5 32 7 42 6 11 -2 27 1 37 6 12 6 17 5 17 -4 0
-9 3 -9 11 -1 6 6 18 9 27 6 11 -5 13 -2 7 6 -6 10 -3 11 12 2 14 -7 24 -7 33
2 10 9 11 9 6 0 -5 -9 -2 -11 8 -7 9 3 13 11 10 16 -4 6 1 6 13 -1 11 -6 22
-8 25 -6 2 2 21 5 41 7 21 1 45 10 54 20 12 13 19 15 29 7 8 -7 26 -8 46 -3
18 4 35 8 38 9 35 8 91 16 94 13 3 -1 12 6 21 17 9 11 14 14 10 8 -4 -9 1 -13
14 -13 12 0 21 4 21 8 0 4 8 8 18 9 9 0 31 3 47 7 17 3 45 9 62 12 18 3 31 9
29 13 -2 3 30 6 72 6 47 0 80 5 88 13 8 7 15 8 19 3 3 -6 12 -8 20 -5 8 4 12
11 8 17 -4 6 -1 7 8 1 17 -10 59 -6 77 8 8 7 12 7 12 -1 0 -7 5 -9 10 -6 6 4
8 9 6 13 -2 4 10 7 27 6 18 0 41 7 51 15 13 11 17 12 12 3 -7 -11 -4 -12 13
-3 12 7 26 9 31 6 5 -3 19 5 31 17 12 13 18 17 14 9 -6 -11 -4 -13 11 -7 10 4
27 9 38 11 10 3 25 10 34 17 12 10 14 10 8 1 -5 -9 -2 -11 8 -7 9 3 16 11 16
18 0 6 5 4 10 -4 8 -12 12 -12 18 -2 5 7 13 12 18 11 5 -1 11 -1 14 1 3 1 16
3 30 5 28 5 62 12 70 15 3 1 8 2 13 1 4 0 7 3 7 7 0 5 14 7 30 6 17 -1 30 3
30 9 0 7 5 5 10 -3 5 -8 10 -10 10 -5 0 6 26 11 57 13 31 2 64 8 72 15 12 9
13 9 7 0 -9 -16 -1 -16 24 -3 11 6 21 6 25 1 3 -5 23 -8 45 -7 45 4 54 -5 55
-49 0 -16 4 -36 9 -44 6 -9 5 -12 -1 -8 -6 4 -9 -17 -7 -56 1 -34 3 -62 4 -62
1 0 3 -15 5 -33 2 -18 8 -39 13 -45 5 -7 15 -29 22 -50 6 -21 23 -49 36 -62
14 -14 23 -25 20 -25 -3 0 14 -20 37 -45 24 -25 49 -45 55 -45 7 0 12 -7 12
-15 0 -9 6 -12 15 -9 8 4 15 1 15 -5 0 -6 7 -11 15 -11 8 0 15 -3 15 -8 0 -8
63 -32 95 -36 11 -1 32 -6 48 -10 18 -6 33 -4 44 5 9 8 14 9 10 3 -5 -9 7 -11
41 -9 26 1 47 3 47 5 0 1 12 3 27 4 15 0 37 9 48 18 11 10 20 13 20 8 0 -9 17
-2 84 37 11 7 20 18 18 24 -1 6 2 8 7 5 14 -9 93 74 120 127 8 15 18 27 23 27
5 0 6 5 3 11 -4 5 0 18 8 27 20 24 30 52 30 90 1 17 5 32 9 32 5 0 4 10 -3 21
-6 13 -7 19 -1 15 15 -9 21 16 9 39 -5 11 -6 17 -2 13 5 -4 14 -3 21 2 8 8 17
6 28 -5 12 -12 16 -13 16 -3 1 8 4 7 11 -4 5 -9 16 -15 23 -12 8 3 17 1 20 -5
4 -6 14 -7 23 -4 10 4 14 2 10 -4 -4 -7 11 -14 41 -19 26 -4 54 -9 62 -11 8
-3 25 -5 37 -6 12 0 20 -4 17 -8 -2 -4 16 -7 41 -7 25 0 45 3 45 8 0 5 8 7 18
5 9 -1 26 2 37 8 11 6 26 10 34 8 7 -1 10 2 6 8 -3 6 -1 11 5 11 6 0 9 4 6 9
-4 5 3 7 14 4 16 -4 19 -2 14 11 -4 9 -1 16 6 16 7 0 10 6 7 14 -3 8 -3 17 1
20 11 12 10 36 -1 36 -8 0 -8 3 -2 8 14 10 17 32 5 32 -5 0 -7 7 -4 15 4 10 0
15 -12 15 -16 0 -17 2 -4 10 13 9 13 11 0 20 -8 5 -11 10 -6 10 5 0 2 8 -5 17
-12 14 -12 16 1 9 12 -6 11 -4 -1 6 -9 7 -14 19 -12 26 3 6 0 12 -5 12 -6 0
-8 9 -5 20 3 12 0 20 -6 20 -7 0 -10 4 -6 9 3 5 0 15 -7 23 -7 7 -15 27 -16
43 -2 17 -8 35 -13 41 -5 6 -6 14 -2 17 3 4 2 7 -4 7 -6 0 -9 9 -6 20 3 11 1
20 -4 20 -7 0 -13 22 -16 68 0 6 -3 12 -7 12 -7 0 -10 19 -10 57 0 12 -5 25
-11 28 -7 5 -6 11 2 21 9 11 9 14 -1 14 -7 0 -10 6 -7 14 3 8 1 17 -6 20 -9 3
-8 5 1 5 7 1 11 5 8 9 -2 4 -1 13 3 20 6 10 19 10 57 2 64 -13 134 -18 134 -9
0 4 6 7 13 6 40 -1 67 4 62 13 -3 6 1 7 10 4 8 -4 23 0 32 7 14 12 16 12 8 0
-5 -8 7 -4 26 9 19 13 36 28 37 32 2 5 8 6 13 2 5 -3 9 0 9 6 0 6 4 9 9 5 5
-3 16 4 24 15 7 11 17 17 20 13 4 -3 7 1 7 11 0 9 4 15 9 12 5 -3 14 0 20 8 9
11 9 15 -1 19 -8 3 -6 6 5 6 11 1 15 6 11 13 -4 6 -3 8 3 5 6 -4 16 0 23 8 7
8 9 15 4 15 -4 0 2 9 14 20 12 11 19 27 16 35 -5 11 -2 13 10 9 12 -5 15 -2
10 10 -4 9 -1 16 6 16 10 0 9 4 0 16 -11 12 -11 15 1 12 8 -2 15 7 17 20 2 13
8 20 14 16 7 -4 8 -2 4 5 -4 6 -2 18 4 26 7 8 9 15 6 15 -4 0 -2 9 4 21 9 15
8 24 -2 37 -9 11 -9 14 -1 9 13 -8 27 27 21 54 -2 8 3 13 9 12 14 -3 13 23 -1
46 -6 10 -5 12 3 7 14 -9 11 30 -3 53 -6 9 -5 12 2 8 15 -10 9 72 -8 103 -7
13 -15 40 -16 59 -2 19 -8 38 -15 41 -6 4 -10 9 -9 11 6 17 -31 89 -66 126
-17 18 -29 35 -26 38 3 3 -2 5 -12 5 -9 0 -14 5 -11 10 3 6 2 10 -2 10 -5 0
-21 11 -36 25 -15 14 -27 23 -27 20 0 -3 -10 3 -22 15 -12 11 -25 21 -30 21
-9 2 -25 5 -35 9 -5 1 -11 2 -15 1 -5 0 -8 3 -8 8 0 6 -9 8 -20 6 -11 -2 -20
0 -20 6 0 5 -9 9 -19 9 -11 0 -23 5 -26 10 -4 7 -12 7 -25 0 -13 -7 -21 -6
-30 5 -10 12 -16 13 -26 4 -8 -6 -14 -7 -14 -2 0 5 -15 9 -32 9 -23 -1 -33 4
-33 14 0 8 -4 20 -8 27 -4 6 -2 13 5 15 6 2 13 12 15 21 1 9 4 24 6 32 2 8 6
18 10 21 13 13 7 26 -9 20 -8 -3 -12 -2 -9 4 3 6 12 10 18 10 7 0 14 12 15 26
1 15 7 33 12 40 8 8 7 14 -2 17 -10 4 -10 6 0 6 6 1 12 12 12 25 0 14 5 28 11
31 6 4 8 13 5 21 -3 8 -1 14 5 14 6 0 8 4 5 8 -2 4 -1 14 4 22 5 9 4 20 -3 29
-9 12 -9 13 1 7 7 -4 12 -1 12 9 0 13 -4 14 -20 5 -11 -6 -20 -7 -20 -2 0 5
-15 7 -32 5 -18 -3 -41 -6 -50 -6 -10 -1 -18 -5 -18 -10 0 -4 -5 -5 -12 -1
-17 11 -88 11 -88 0 0 -5 -6 -4 -13 2 -7 6 -18 8 -24 4 -7 -4 -41 -7 -77 -6
-44 0 -63 -3 -59 -10 4 -6 0 -5 -8 1 -12 10 -18 10 -27 1 -7 -7 -12 -8 -12 -2
0 5 -13 9 -30 10 -16 1 -27 -2 -25 -6 2 -4 -2 -7 -10 -7 -8 0 -15 3 -15 7 0 3
-26 5 -57 3 -95 -6 -135 -2 -145 12 -5 6 -8 5 -8 -3 0 -7 -5 -10 -11 -6 -15 9
-155 7 -171 -2 -7 -4 -8 -3 -4 4 4 7 3 12 -3 12 -5 0 -13 -4 -16 -10 -4 -6
-16 -3 -33 8 -17 11 -23 12 -18 4 7 -12 4 -12 -15 -1 -13 7 -26 10 -28 8 -3
-2 -6 11 -7 29 -1 18 1 30 5 28 9 -6 7 46 -2 61 -6 9 -3 11 10 6 16 -6 17 -5
3 12 -9 11 -10 16 -2 11 9 -5 11 2 6 31 -4 21 -7 46 -6 56 0 9 -3 15 -8 12 -5
-3 -9 3 -9 12 -1 39 -5 53 -13 53 -4 0 -7 3 -6 8 3 12 -24 62 -34 62 -4 0 -8
7 -8 16 0 8 -4 12 -10 9 -5 -3 -10 1 -10 9 0 9 -4 16 -10 16 -5 0 -10 7 -10
16 0 11 -6 15 -19 11 -13 -3 -18 0 -15 7 3 7 -7 18 -21 26 -14 7 -25 17 -25
22 0 5 -4 6 -10 3 -5 -3 -10 -2 -10 3 0 14 -79 54 -91 47 -5 -4 -9 -1 -9 4 0
6 -7 11 -15 11 -9 0 -33 8 -54 19 -28 13 -44 15 -56 8 -13 -7 -16 -6 -11 2 5
8 -12 11 -58 11 -35 0 -72 3 -82 7 -10 4 -15 2 -11 -3 3 -6 -8 -9 -26 -8 -18
1 -38 -2 -45 -8 -7 -6 -15 -8 -19 -4 -3 3 -17 -1 -31 -10 -13 -9 -21 -11 -17
-5 3 6 -10 2 -29 -9 -20 -11 -36 -17 -36 -13 0 3 -9 -4 -19 -16 -11 -12 -23
-23 -28 -24 -4 -1 -7 -5 -5 -10 1 -4 -1 -6 -5 -6 -5 1 -15 1 -23 0 -13 -1 -13
-2 0 -11 11 -7 12 -10 2 -10 -31 0 -104 -106 -115 -166 -2 -10 -8 -28 -13 -39
-4 -11 -8 -37 -9 -57 0 -21 -4 -38 -10 -38 -5 0 -3 -5 5 -10 10 -7 11 -10 2
-10 -9 0 -12 -18 -11 -64 2 -79 -4 -89 -47 -84 -20 2 -34 0 -34 -7 0 -6 -3 -7
-8 0 -9 12 -62 13 -81 1 -10 -6 -12 -6 -7 2 4 7 3 12 -3 12 -5 0 -17 3 -27 7
-13 5 -15 3 -9 -7 6 -9 4 -11 -5 -5 -22 13 -71 14 -63 1 5 -8 3 -8 -8 0 -17
13 -15 13 -149 17 -120 4 -202 -2 -195 -13 2 -4 -9 -6 -26 -4 -16 2 -27 0 -24
-5 3 -5 0 -13 -6 -17 -8 -4 -9 -3 -5 4 4 7 4 12 -1 13 -4 0 -39 2 -78 4 -38 2
-82 7 -97 10 -20 5 -28 4 -28 -6 0 -7 -3 -9 -7 -6 -3 4 -13 1 -21 -6 -11 -8
-14 -8 -9 0 9 14 -28 28 -45 16 -20 -12 -37 -12 -44 -1 -4 6 -10 5 -15 -3 -6
-10 -9 -11 -9 -2 0 9 -11 11 -33 8 -28 -5 -33 -3 -33 15 0 11 4 20 9 20 4 0 6
4 2 10 -3 5 1 26 10 46 8 20 15 45 15 55 0 9 7 24 15 33 9 9 11 17 5 21 -5 3
-6 15 -1 28 7 19 6 73 -3 117 -5 27 -25 65 -25 51 -1 -8 -4 -11 -7 -8 -4 4 -1
13 6 22 10 12 10 15 -5 15 -11 0 -15 5 -12 14 3 8 -1 17 -9 20 -8 3 -13 9 -12
13 2 4 -1 9 -6 10 -5 0 -13 8 -18 17 -5 9 -13 14 -19 11 -5 -4 -9 1 -9 9 0 14
-6 18 -26 15 -3 0 -14 9 -23 20 -10 11 -21 18 -25 14 -3 -3 -6 0 -6 7 0 7 -3
10 -6 7 -4 -3 -16 -1 -28 6 -39 21 -86 36 -79 23 4 -6 0 -5 -9 2 -9 7 -22 12
-30 11 -31 -4 -59 2 -53 11 7 12 -23 9 -44 -4 -10 -6 -12 -5 -7 2 4 7 1 12 -9
12 -10 0 -13 -5 -9 -12 6 -10 5 -10 -7 -1 -12 10 -18 10 -29 0 -8 -8 -11 -8
-6 0 4 7 -5 11 -29 10 -19 -1 -35 -5 -35 -9z"/>
<path d="M4905 3530 c-3 -5 -1 -10 4 -10 6 0 11 5 11 10 0 6 -2 10 -4 10 -3 0
-8 -4 -11 -10z"/>
<path d="M2055 2664 c-16 -6 -33 -10 -37 -7 -5 2 -8 -1 -8 -6 0 -6 -7 -11 -15
-11 -9 0 -18 -7 -21 -15 -4 -8 -13 -15 -21 -15 -8 0 -11 -4 -8 -10 3 -5 2 -10
-4 -10 -15 0 -43 -58 -35 -72 4 -7 3 -8 -4 -4 -7 4 -13 2 -13 -3 -3 -26 -4
-30 -11 -37 -5 -4 -8 -17 -8 -30 0 -12 -6 -25 -12 -27 -10 -4 -10 -6 0 -6 7
-1 10 -6 6 -12 -12 -20 -14 -120 -2 -113 7 4 7 0 -1 -13 -6 -11 -7 -23 -4 -27
7 -7 11 -24 15 -58 1 -10 5 -18 9 -18 3 0 12 -18 19 -40 7 -22 17 -40 22 -40
4 0 8 -6 8 -13 0 -14 45 -51 90 -75 27 -15 133 -26 126 -13 -3 4 8 5 25 3 16
-2 29 0 29 6 0 5 8 9 18 8 9 0 16 5 14 12 -1 8 3 12 10 9 7 -2 30 14 51 36 29
30 35 42 25 48 -10 7 -10 9 2 9 16 0 54 75 46 89 -3 4 -1 13 4 21 5 8 4 22 -2
33 -7 13 -7 17 0 13 15 -9 9 49 -8 69 -11 14 -11 16 1 13 10 -2 13 5 12 22 -2
14 -3 40 -4 58 -1 17 -5 35 -10 38 -5 3 -9 14 -9 25 0 12 -4 17 -11 13 -7 -4
-10 -1 -7 7 8 21 -34 78 -87 119 -17 13 -18 13 -10 0 6 -11 3 -10 -12 3 -11 9
-23 14 -26 10 -4 -3 -7 0 -7 7 0 7 -2 11 -6 8 -3 -3 -21 -2 -40 2 -21 5 -37 4
-40 -2 -4 -6 -9 -7 -13 -1 -4 6 -18 5 -36 -3z m81 -113 c11 9 15 9 10 2 -4 -8
2 -17 18 -25 15 -6 26 -20 26 -31 0 -11 5 -17 13 -14 9 3 12 -5 9 -31 -3 -25
-1 -33 8 -27 9 6 9 3 1 -12 -6 -11 -8 -23 -5 -26 10 -9 10 -147 1 -147 -5 0
-7 -9 -4 -20 3 -11 1 -23 -5 -26 -5 -3 -7 -13 -4 -21 3 -8 2 -12 -3 -9 -4 3
-14 -6 -21 -19 -7 -14 -19 -25 -27 -25 -7 0 -13 -4 -13 -9 0 -6 -11 -6 -27 -1
-49 14 -63 22 -57 31 3 5 0 9 -6 9 -6 0 -9 4 -6 9 4 5 1 11 -4 13 -6 2 -12 10
-13 18 -2 8 -7 21 -11 29 -6 9 -5 12 1 8 6 -4 5 8 -2 30 -9 26 -10 45 -3 63 5
14 9 25 9 25 0 0 -4 13 -10 28 -7 18 -7 26 -1 22 8 -5 15 31 11 58 0 4 4 7 10
7 8 0 7 6 -2 17 -10 11 -10 14 -1 9 6 -4 12 -2 12 4 0 15 46 60 54 53 3 -4 6
0 6 8 0 12 2 12 9 0 8 -13 12 -13 27 0z"/>
<path d="M6990 2673 c0 -5 -19 -7 -41 -5 -33 4 -40 2 -33 -9 6 -11 5 -12 -8
-2 -8 7 -18 9 -22 5 -4 -4 -11 -7 -14 -8 -20 -2 -41 -17 -36 -25 3 -5 -1 -7
-8 -4 -23 8 -107 -81 -98 -104 1 -2 -5 -8 -13 -13 -9 -4 -14 -17 -12 -28 2
-11 0 -18 -6 -15 -9 6 -14 -21 -11 -58 1 -10 -2 -16 -6 -13 -11 6 -9 -25 3
-43 5 -10 4 -12 -3 -7 -7 4 -12 3 -12 -3 0 -5 5 -13 10 -16 7 -4 7 -13 0 -24
-6 -12 -5 -22 3 -31 9 -10 9 -11 0 -6 -18 10 -16 -10 3 -28 8 -9 11 -16 6 -16
-5 0 -7 -11 -4 -25 2 -14 9 -25 14 -25 5 0 7 -3 4 -8 -2 -4 4 -25 14 -47 11
-22 19 -36 20 -32 0 4 11 -3 24 -15 13 -13 22 -25 19 -27 -2 -3 20 -15 48 -28
37 -17 54 -21 59 -13 5 8 9 7 13 -4 7 -17 27 -18 39 -1 5 6 8 5 8 -2 0 -7 7
-13 16 -13 8 0 12 5 8 11 -4 8 -1 8 12 2 17 -8 36 -10 49 -3 7 3 22 7 36 9 5
0 7 6 3 13 -5 7 -3 8 5 3 16 -9 62 15 54 28 -3 6 -2 7 4 4 6 -4 19 0 29 8 19
14 19 14 -1 15 -16 0 -17 2 -6 9 17 11 23 51 7 51 -6 0 -6 4 2 12 9 9 7 14 -6
25 -13 10 -13 12 -2 8 11 -4 16 1 17 15 1 12 -3 18 -9 14 -7 -5 -7 -1 0 12 8
14 6 21 -6 31 -14 10 -14 12 -2 8 11 -4 16 1 17 15 1 13 -2 18 -10 14 -9 -5
-9 -4 -1 5 14 15 7 51 -10 51 -7 0 -6 3 2 8 7 5 -27 8 -77 8 -57 -1 -87 -5
-84 -11 3 -5 0 -5 -7 2 -21 19 -41 -10 -38 -57 2 -36 4 -40 29 -40 28 0 47
-28 34 -50 -3 -5 -1 -10 6 -10 9 0 9 -4 -1 -15 -6 -8 -9 -19 -5 -25 9 -15 -13
-40 -30 -34 -7 3 -16 1 -19 -5 -8 -12 -62 14 -91 43 -11 12 -22 32 -23 46 -2
14 -7 30 -11 35 -12 16 -20 166 -9 159 3 -2 10 10 13 28 4 18 12 39 17 46 7 8
6 17 -3 30 -12 15 -12 16 1 6 12 -9 18 -9 28 2 7 8 9 14 5 15 -21 2 90 31 115
29 48 -2 60 -5 56 -12 -5 -7 13 -12 43 -11 7 1 11 -3 8 -7 -6 -10 19 -20 31
-12 12 8 12 22 0 41 -6 9 -5 12 1 8 15 -9 9 49 -7 68 -7 8 -16 12 -21 9 -5 -3
-9 0 -9 7 0 6 -8 9 -20 6 -11 -3 -18 -1 -14 4 3 5 2 10 -3 10 -4 1 -17 3 -28
4 -11 2 -28 6 -37 10 -10 4 -18 3 -18 -2z"/>
<path d="M7503 2669 c-18 -3 -33 -4 -33 -2 0 3 -8 -1 -17 -8 -11 -9 -14 -10
-9 -2 5 9 2 11 -8 7 -9 -3 -13 -11 -9 -17 4 -6 0 -8 -10 -4 -9 3 -21 -1 -29
-11 -11 -13 -11 -14 1 -7 10 5 12 4 7 -4 -4 -6 -12 -9 -17 -5 -21 13 -89 -84
-84 -119 2 -9 -1 -15 -6 -11 -5 3 -10 -1 -11 -8 0 -7 -2 -17 -2 -23 -1 -5 -5
-15 -9 -22 -4 -7 0 -17 10 -23 17 -11 17 -11 -1 -6 -13 5 -17 2 -13 -8 3 -7 1
-18 -5 -24 -8 -8 -8 -15 0 -24 7 -9 7 -19 2 -28 -12 -18 -13 -33 -2 -26 4 2 7
-11 7 -30 -1 -19 4 -46 11 -60 9 -16 9 -22 2 -18 -6 4 -4 -3 5 -17 9 -13 17
-31 17 -41 0 -10 7 -18 15 -18 8 0 15 -9 15 -20 0 -11 5 -20 10 -20 6 0 10 -6
10 -14 0 -8 9 -18 20 -21 11 -3 20 -11 20 -16 0 -5 8 -9 18 -9 10 0 23 -5 28
-10 17 -17 104 -22 104 -7 0 9 2 9 8 0 8 -13 52 -7 52 8 0 4 9 6 20 4 13 -2
20 2 20 11 0 8 4 13 9 10 12 -8 33 19 23 29 -4 5 -2 5 4 2 14 -8 37 17 26 27
-4 4 0 6 8 4 8 -1 14 3 12 10 -1 6 2 12 7 12 11 0 34 58 34 83 0 9 4 17 8 17
5 0 9 4 9 10 0 5 -8 7 -17 4 -15 -5 -16 -4 -3 5 8 6 16 15 16 21 1 5 2 11 4
13 7 8 3 64 -4 60 -5 -4 -6 0 -1 7 11 17 15 60 6 60 -4 0 -8 10 -9 23 -3 41
-8 67 -15 73 -4 4 -7 16 -7 26 0 10 -4 18 -10 18 -5 0 -9 6 -7 13 1 6 -4 11
-11 9 -7 -1 -12 4 -10 12 4 17 -59 79 -72 71 -6 -3 -10 1 -10 10 0 13 -4 14
-20 5 -15 -8 -20 -8 -18 1 4 16 -49 27 -89 18z m69 -143 c5 -8 15 -22 23 -30
8 -8 15 -25 15 -38 0 -13 4 -30 10 -38 6 -9 5 -17 -3 -22 -9 -6 -9 -8 1 -8 7
0 10 -4 7 -10 -3 -5 -1 -10 5 -10 6 0 8 -5 4 -12 -10 -15 -9 -82 1 -98 5 -8 4
-11 -2 -7 -6 4 -13 -2 -16 -13 -3 -11 -1 -20 5 -20 5 0 2 -7 -7 -16 -9 -9 -14
-23 -11 -30 3 -8 2 -14 -3 -14 -4 0 -13 -10 -20 -22 -8 -15 -22 -24 -42 -25
-38 -3 -89 22 -89 42 0 8 -4 15 -10 15 -5 0 -9 3 -9 8 4 25 -2 42 -13 36 -10
-6 -10 -4 0 8 9 12 10 18 2 23 -8 5 -8 10 0 20 7 8 7 16 2 19 -6 3 -7 20 -2
40 4 19 5 38 2 41 -8 8 -8 59 0 65 3 3 8 18 10 34 3 30 37 75 51 69 4 -2 7 0
7 6 0 16 72 5 82 -13z m-87 -534 c-3 -3 -11 0 -18 7 -9 10 -8 11 6 5 10 -3 15
-9 12 -12z"/>
<path d="M760 2661 c-12 -5 -15 -29 -16 -118 -1 -95 1 -113 15 -116 14 -4 13
-5 -1 -6 -20 -1 -25 -31 -5 -31 7 0 8 -3 2 -8 -14 -10 -15 -185 -1 -194 8 -5
7 -8 -1 -8 -7 0 -13 -7 -13 -15 0 -8 6 -15 13 -15 9 0 9 -2 0 -8 -9 -6 -12
-69 -4 -138 1 -14 34 -14 43 0 5 7 8 7 8 1 0 -15 41 -16 59 -2 12 9 13 9 7 0
-5 -9 -1 -13 10 -13 10 0 15 3 11 6 -3 3 -2 17 3 30 6 15 6 26 -1 30 -6 4 -6
11 2 20 9 11 9 14 -1 14 -9 0 -10 3 -1 13 8 10 7 17 -1 25 -8 8 -8 12 -2 12 7
0 8 16 4 45 -4 25 -3 42 2 39 5 -4 6 9 3 30 -4 20 -4 36 0 36 10 0 35 -27 35
-39 0 -6 5 -11 11 -11 5 0 8 -4 5 -9 -3 -5 3 -20 14 -34 11 -14 20 -30 20 -36
0 -6 4 -11 9 -11 9 0 27 -41 22 -48 -1 -2 7 -12 18 -21 11 -10 18 -21 14 -25
-3 -3 -1 -6 6 -6 7 0 11 -6 8 -13 -2 -6 7 -21 21 -31 15 -12 22 -14 17 -5 -7
11 -6 12 6 3 16 -13 87 -13 108 0 9 6 12 5 8 -1 -3 -5 0 -10 8 -10 9 0 13 8
11 21 -2 12 -9 20 -16 18 -6 -1 -9 2 -5 8 7 11 -25 70 -38 70 -4 0 -5 5 -2 10
3 6 1 10 -6 10 -7 0 -9 3 -6 7 4 3 -1 12 -11 20 -10 9 -11 12 -2 7 14 -7 -14
33 -33 47 -5 3 -8 9 -8 13 3 20 0 26 -11 20 -7 -5 -8 -3 -3 6 5 8 2 18 -9 26
-10 7 -18 16 -19 21 -1 4 -6 7 -11 5 -5 -2 -4 3 2 11 7 8 9 16 7 19 -3 3 -7
15 -10 27 -3 14 1 21 12 21 13 0 14 2 2 17 -10 11 -10 14 -1 9 11 -6 17 5 13
27 0 4 3 7 8 7 5 0 20 22 34 50 14 27 20 47 14 44 -7 -3 -4 1 5 9 10 8 15 17
11 20 -3 4 -1 7 6 7 8 0 11 6 7 16 -3 8 -2 12 4 9 6 -3 10 -5 10 -3 0 2 4 18
9 36 6 20 6 30 0 27 -5 -4 -9 -1 -9 6 0 9 -3 9 -14 0 -10 -9 -16 -9 -21 -1 -5
8 -14 6 -31 -4 -21 -14 -23 -14 -18 -1 8 19 -23 10 -47 -15 -25 -26 -60 -110
-46 -111 7 0 1 -5 -12 -10 -16 -6 -22 -15 -18 -29 3 -11 0 -18 -7 -17 -6 1
-11 -5 -11 -13 0 -8 -7 -20 -15 -27 -8 -7 -12 -13 -8 -13 10 0 -24 -40 -34
-40 -4 0 -7 48 -7 108 0 59 -1 112 -2 117 -1 6 0 21 1 34 1 14 -2 21 -9 17 -6
-4 -11 -1 -11 6 0 9 -3 9 -10 -2 -8 -12 -10 -12 -10 -1 0 11 -3 11 -15 1 -11
-9 -15 -9 -15 -1 0 8 -5 9 -19 1 -11 -5 -21 -6 -23 -1 -2 4 -10 6 -18 2z"/>
<path d="M1315 2661 c-21 -8 -27 -41 -10 -53 6 -5 5 -8 -2 -8 -9 0 -10 -7 -4
-23 6 -14 6 -30 0 -38 -11 -17 -12 -32 -1 -25 4 2 8 -4 8 -14 0 -10 -4 -16 -8
-14 -4 3 -8 1 -8 -5 0 -5 5 -13 10 -16 7 -4 6 -14 -1 -28 -9 -16 -9 -22 -1
-25 9 -3 9 -9 2 -23 -8 -14 -7 -19 2 -19 9 0 9 -3 0 -12 -15 -15 -16 -32 -1
-22 8 5 8 1 0 -13 -7 -14 -7 -24 2 -33 9 -10 9 -11 0 -6 -16 9 -16 5 -3 -28 6
-16 6 -27 -1 -31 -5 -4 -6 -12 -2 -18 10 -17 11 -47 1 -41 -10 6 -9 -4 1 -31
5 -11 4 -25 -1 -32 -6 -7 -5 -14 2 -18 8 -5 7 -11 -2 -23 -11 -13 -11 -14 0
-8 12 7 12 4 2 -15 -10 -17 -10 -24 -1 -27 6 -2 9 -7 7 -10 -2 -4 20 -8 50 -9
39 -1 52 2 47 10 -4 7 1 6 10 -2 15 -12 18 -10 26 10 5 14 5 25 0 27 -5 2 -6
9 -2 15 10 17 11 47 1 47 -5 0 -4 8 1 18 5 10 6 24 1 32 -5 8 -5 21 -1 29 8
19 7 64 -3 80 -4 6 -3 11 2 11 5 0 8 15 5 34 -2 20 2 38 8 42 8 4 9 3 5 -4 -4
-7 -2 -12 3 -12 6 0 11 -6 11 -12 0 -7 9 -24 20 -38 11 -14 20 -33 20 -42 0
-10 4 -18 9 -18 5 0 12 -11 15 -25 4 -14 11 -23 16 -20 6 4 7 -1 3 -11 -4 -12
-3 -15 5 -10 8 4 10 2 6 -7 -3 -8 2 -21 10 -30 8 -8 12 -17 9 -21 -4 -3 -1 -6
6 -6 7 0 10 -4 6 -10 -3 -5 3 -18 14 -29 11 -11 17 -22 14 -25 -3 -3 0 -12 7
-21 10 -12 16 -13 28 -3 13 10 14 10 8 1 -4 -7 -2 -13 3 -13 6 0 11 6 11 13 0
9 2 9 8 -1 5 -7 23 -12 40 -10 17 1 29 5 26 9 -2 4 2 10 8 12 10 4 9 8 -2 16
-8 6 -10 11 -4 11 6 0 12 11 12 25 0 16 -5 22 -12 18 -8 -5 -8 -3 0 8 14 18
14 52 0 61 -8 5 -7 8 2 8 6 0 12 5 12 11 0 5 -6 7 -12 3 -8 -5 -8 -1 1 10 12
14 12 19 2 26 -11 6 -11 9 0 13 12 4 11 7 -1 16 -8 6 -10 11 -4 11 6 0 11 16
11 35 0 21 -4 32 -11 28 -6 -3 -5 0 2 8 6 7 12 17 12 22 0 4 -6 5 -12 1 -10
-6 -10 -4 -2 7 15 20 16 61 1 52 -9 -5 -9 -3 -1 8 14 18 14 52 0 61 -8 5 -7 8
2 8 6 0 12 5 12 11 0 5 -6 7 -12 3 -8 -5 -8 -1 1 10 13 15 13 19 0 27 -10 6
-10 9 -1 9 6 0 12 5 12 11 0 5 -6 7 -12 3 -8 -5 -8 -1 1 10 13 15 13 19 0 27
-9 6 -10 9 -2 9 7 0 12 11 11 25 -1 14 -6 25 -11 25 -4 0 -5 6 -1 13 5 8 2 8
-9 -2 -12 -9 -17 -10 -17 -2 0 9 -5 9 -21 0 -16 -8 -20 -8 -14 1 6 9 2 9 -14
1 -13 -7 -21 -8 -21 -2 0 6 -6 8 -14 5 -17 -6 -26 -48 -15 -66 4 -7 3 -18 -2
-24 -7 -8 -6 -14 1 -19 8 -5 8 -10 0 -20 -8 -10 -8 -15 0 -20 8 -5 8 -11 -1
-21 -9 -11 -9 -14 0 -14 8 0 9 -5 1 -19 -7 -14 -7 -22 0 -26 8 -5 8 -11 0 -20
-6 -7 -7 -16 -2 -19 11 -6 3 -64 -9 -72 -5 -3 -9 2 -9 10 0 9 -4 16 -9 16 -5
0 -12 11 -15 25 -4 14 -15 34 -26 45 -11 11 -20 22 -20 25 1 18 -14 55 -21 55
-5 0 -9 9 -9 21 0 11 -4 17 -10 14 -9 -5 -15 23 -11 48 0 4 -3 7 -8 7 -5 0
-12 8 -16 19 -8 27 -45 67 -45 50 0 -11 -2 -11 -10 1 -8 12 -10 12 -10 1 0
-10 -3 -11 -13 -3 -10 9 -19 7 -35 -4 -20 -13 -21 -13 -16 1 7 17 7 17 -21 6z"/>
<path d="M2407 2663 c-4 -3 -1 -13 6 -21 8 -11 8 -13 0 -9 -7 5 -9 0 -6 -13 3
-11 9 -20 14 -20 5 0 6 -7 3 -15 -4 -8 -1 -15 6 -15 6 0 9 -4 6 -9 -4 -5 3
-30 14 -55 10 -25 16 -46 12 -46 -4 0 2 -7 12 -15 14 -11 16 -15 5 -15 -11 -1
-10 -4 3 -14 10 -7 15 -16 11 -19 -3 -4 0 -14 8 -24 12 -15 12 -16 -1 -8 -12
7 -12 5 1 -11 9 -10 14 -25 12 -31 -3 -8 3 -13 14 -13 14 0 15 -2 4 -9 -11 -7
-10 -11 5 -20 11 -6 13 -11 7 -11 -20 0 -15 -17 10 -41 12 -12 16 -19 10 -15
-15 8 -17 -5 -4 -20 4 -5 14 -30 21 -56 7 -26 16 -45 20 -43 5 3 6 -5 2 -17
-3 -13 -1 -19 5 -15 7 5 9 0 6 -13 -3 -11 0 -20 6 -20 6 0 11 -9 11 -19 0 -25
17 -36 34 -22 9 7 16 7 23 0 13 -13 20 -3 27 35 3 15 10 34 17 42 6 8 8 14 4
14 -4 0 -2 6 4 13 6 8 13 24 15 38 3 13 5 26 6 29 2 3 2 8 1 13 0 4 3 7 8 7 5
0 12 7 15 16 3 9 2 12 -4 9 -6 -4 -1 10 10 29 11 20 17 36 13 36 -4 0 -2 5 5
12 7 7 12 25 12 41 0 15 4 26 9 23 5 -3 11 1 15 9 3 8 0 15 -7 15 -8 0 -8 3
-2 8 6 4 15 17 20 29 10 22 11 22 33 -13 13 -20 19 -33 13 -29 -6 3 -11 1 -11
-4 0 -6 5 -11 10 -11 6 0 10 -9 10 -20 0 -11 5 -20 10 -20 6 0 10 -6 9 -12 -5
-23 12 -78 22 -73 5 4 6 -1 3 -10 -4 -8 -1 -22 6 -30 7 -8 9 -15 4 -15 -4 0
-3 -5 4 -12 7 -7 12 -20 12 -30 0 -10 4 -18 10 -18 5 0 7 -7 4 -15 -4 -8 -1
-15 6 -15 6 0 9 -4 6 -8 -3 -5 1 -19 8 -33 7 -13 11 -30 8 -37 -2 -6 0 -12 5
-13 4 0 20 -2 36 -4 15 -2 25 0 22 6 -4 5 2 9 12 9 15 0 16 2 3 10 -12 8 -12
10 2 15 10 4 15 16 13 30 -1 14 1 22 5 20 8 -5 25 42 22 58 -1 4 3 7 9 7 5 0
7 4 4 10 -3 5 1 21 10 34 9 14 14 30 11 35 -4 5 -1 13 5 16 5 4 8 14 5 22 -3
8 -1 11 4 8 9 -5 15 23 11 48 0 4 3 7 9 7 5 0 10 9 10 20 0 11 4 20 9 20 6 0
8 9 6 20 -2 11 0 20 4 20 5 0 12 15 16 33 8 35 11 44 15 52 1 3 3 8 4 13 1 4
5 13 9 20 5 6 5 12 0 12 -4 0 -3 4 3 8 18 12 35 72 21 72 -7 0 -4 5 6 11 9 5
17 16 17 23 0 18 -35 27 -49 13 -8 -8 -11 -8 -11 0 0 12 -30 10 -50 -2 -6 -3
-10 -1 -10 5 0 6 -5 8 -11 5 -6 -4 -8 -13 -5 -21 3 -8 0 -13 -6 -11 -7 1 -12
-2 -13 -8 0 -5 -4 -16 -8 -22 -5 -7 -6 -13 -3 -13 3 0 -1 -12 -9 -26 -7 -15
-11 -33 -8 -40 3 -8 0 -14 -7 -14 -7 0 -10 -7 -6 -15 3 -8 0 -15 -6 -15 -6 0
-9 -3 -6 -6 4 -3 0 -21 -8 -40 -8 -19 -11 -34 -7 -34 5 0 3 -4 -3 -8 -6 -4
-18 -27 -26 -52 l-15 -45 -22 43 c-12 23 -18 42 -14 42 5 0 1 5 -9 10 -10 6
-14 18 -11 30 3 12 0 20 -6 20 -7 0 -9 4 -6 10 3 5 -1 22 -9 38 -8 16 -12 32
-9 36 4 3 0 6 -7 6 -7 0 -10 3 -7 7 4 3 2 12 -4 20 -6 7 -9 13 -5 13 11 0 -24
73 -42 86 -21 16 -46 18 -36 3 4 -8 0 -8 -15 0 -13 7 -21 8 -21 2 0 -6 -6 -8
-13 -6 -7 3 -18 -9 -25 -27 -7 -18 -18 -41 -23 -52 -8 -14 -8 -16 2 -10 7 4 3
-7 -10 -25 -13 -18 -21 -40 -18 -52 3 -12 1 -17 -6 -12 -6 4 -8 0 -4 -10 3 -9
1 -17 -4 -19 -6 -2 -11 -10 -13 -18 -2 -8 -8 -26 -13 -40 -6 -14 -9 -28 -6
-32 2 -5 0 -8 -5 -8 -6 0 -13 -11 -16 -25 -6 -24 -8 -24 -22 -10 -9 9 -14 19
-10 22 3 3 -2 12 -12 20 -10 9 -11 11 -2 7 12 -6 13 -5 4 7 -6 8 -17 34 -24
59 -8 25 -19 48 -25 52 -6 5 -5 8 3 8 9 0 9 6 -3 24 -9 13 -15 28 -14 32 3 19
-1 35 -8 31 -5 -3 -9 6 -10 19 -4 46 -6 54 -15 54 -5 0 -7 3 -5 8 3 4 -8 7
-24 7 -16 0 -29 -3 -29 -7 0 -8 -21 -5 -37 5 -8 5 -13 3 -13 -4 0 -8 -3 -9
-13 0 -8 6 -17 8 -20 4z"/>
<path d="M3972 2654 c-10 -11 -11 -47 -3 -105 2 -11 43 -2 53 12 8 11 9 11 4
-3 -6 -19 9 -25 19 -8 5 8 11 8 20 0 7 -6 19 -9 26 -8 10 2 13 -7 12 -30 -2
-30 0 -32 15 -20 14 12 14 11 -1 -11 -11 -17 -13 -28 -6 -37 7 -8 7 -14 -1
-19 -7 -4 -7 -13 1 -27 8 -15 8 -19 0 -14 -6 4 -11 0 -11 -9 0 -10 5 -13 12
-9 7 5 8 3 3 -6 -4 -7 -9 -37 -10 -66 -2 -47 0 -52 14 -41 12 10 12 7 -2 -12
-11 -17 -13 -28 -6 -37 7 -8 7 -14 -1 -19 -7 -4 -7 -13 1 -27 8 -15 8 -19 0
-14 -6 4 -11 0 -11 -9 0 -10 5 -13 12 -9 7 5 8 3 3 -6 -11 -18 -13 -110 -2
-110 4 0 5 -4 2 -10 -9 -14 8 -12 24 3 11 9 13 9 7 0 -9 -16 10 -17 19 -3 4 7
11 8 18 2 10 -8 42 -9 67 -3 10 2 8 306 -2 325 -7 13 -7 16 1 12 12 -8 9 112
-4 133 -5 10 -4 12 4 7 8 -6 11 2 8 28 -2 19 -1 33 4 31 4 -3 10 -1 13 3 3 5
18 8 33 8 15 -1 36 2 47 7 11 6 16 5 13 0 -4 -5 0 -10 8 -10 8 0 12 4 9 9 -3
4 0 8 6 8 7 0 8 6 2 16 -5 9 -6 32 -2 50 4 19 6 34 4 35 -21 4 -113 1 -122 -5
-7 -4 -12 -3 -12 2 0 5 -7 9 -15 9 -8 0 -15 -5 -15 -10 0 -5 -6 -4 -14 2 -11
9 -15 9 -19 -1 -4 -10 -6 -10 -6 1 -1 11 -4 11 -16 1 -12 -10 -15 -10 -15 1 0
12 -2 12 -9 0 -6 -9 -10 -10 -16 -2 -5 9 -10 9 -21 0 -11 -9 -14 -9 -14 1 0
10 -3 10 -15 0 -12 -10 -15 -10 -15 0 0 9 -4 9 -17 -1 -15 -12 -16 -12 -8 1 8
13 7 13 -8 1 -13 -10 -17 -10 -17 -1 0 10 -3 10 -14 1 -8 -7 -16 -8 -18 -2 -1
5 -9 3 -16 -5z"/>
<path d="M4532 2654 c-7 -8 -10 -14 -6 -14 3 0 1 -6 -5 -14 -9 -11 -9 -16 0
-22 9 -5 7 -11 -6 -21 -11 -7 -15 -13 -11 -13 5 0 2 -8 -5 -17 -10 -11 -10
-14 -1 -9 6 4 12 3 12 -3 0 -5 -4 -11 -10 -13 -5 -1 -11 -15 -12 -30 -1 -16
-5 -28 -9 -28 -4 0 -6 -8 -5 -17 2 -10 -2 -21 -8 -25 -7 -5 -6 -8 4 -8 11 0
12 -3 3 -8 -6 -4 -14 -19 -17 -32 -9 -47 -14 -68 -25 -105 -6 -21 -8 -42 -5
-46 2 -4 0 -10 -6 -14 -6 -3 -8 -17 -6 -31 3 -14 1 -22 -5 -19 -9 6 -12 -3
-12 -37 0 -10 -4 -18 -10 -18 -5 0 -3 -8 4 -17 12 -14 12 -16 0 -8 -11 6 -13
3 -9 -13 4 -12 3 -20 -2 -17 -4 3 -10 -6 -12 -20 -3 -14 -1 -25 4 -25 5 0 6
-4 3 -10 -3 -5 1 -10 10 -10 9 0 13 5 10 10 -3 6 -1 10 4 10 6 0 11 -4 11 -9
0 -4 21 -8 46 -7 32 1 48 7 55 19 6 9 7 17 4 17 -3 0 -1 10 6 21 9 17 8 20 -3
13 -11 -6 -11 -5 1 9 7 9 10 17 6 17 -4 0 -2 7 5 15 6 8 9 19 5 24 -3 7 0 8
10 5 8 -4 21 -1 29 5 7 6 16 7 20 3 11 -11 50 -9 58 3 5 6 8 6 8 -2 0 -7 7
-13 15 -13 8 0 15 -9 15 -21 0 -12 4 -17 11 -13 8 4 8 0 0 -15 -7 -13 -8 -21
-2 -21 6 0 8 -6 5 -14 -3 -8 4 -24 15 -35 23 -23 36 -28 25 -9 -5 7 -3 8 7 2
8 -4 35 -9 60 -10 l46 -2 -3 38 c-1 22 -6 45 -10 52 -5 7 -9 20 -11 28 -4 28
-26 105 -33 115 -3 6 -7 26 -9 45 -1 19 -5 37 -10 40 -4 3 -7 13 -5 23 1 9 -1
17 -6 17 -4 0 -6 9 -3 20 3 12 0 20 -6 20 -7 0 -11 8 -10 18 2 9 0 27 -5 39
-4 12 -9 32 -11 44 -3 12 -10 26 -17 31 -9 5 -9 8 -1 8 8 0 8 11 -2 43 -7 23
-15 49 -16 57 -7 26 -23 39 -36 28 -9 -7 -13 -7 -13 0 0 7 -7 9 -17 5 -21 -8
-66 -9 -79 -1 -5 3 -15 0 -22 -8z m94 -247 c9 -49 9 -47 18 -69 4 -9 5 -21 2
-27 -4 -5 -2 -12 3 -16 13 -7 10 -45 -4 -46 -44 -6 -55 -5 -76 7 -13 7 -19 13
-12 14 6 0 10 11 9 25 -2 15 1 22 7 18 6 -4 8 0 4 10 -3 9 -1 19 5 23 7 4 6 9
-3 15 -11 7 -11 9 -1 9 7 0 10 5 7 10 -3 6 -2 10 3 10 5 0 9 6 10 13 5 67 16
69 28 4z"/>
<path d="M4929 2660 c-1 -8 -2 -27 -3 -42 -2 -16 2 -28 8 -28 6 0 5 -4 -3 -9
-9 -6 -10 -11 -2 -15 6 -4 8 -13 4 -19 -12 -20 -12 -37 0 -37 8 0 7 -3 -2 -9
-9 -6 -10 -11 -2 -15 6 -4 8 -13 4 -19 -4 -6 -7 -42 -8 -79 -1 -60 0 -66 14
-55 14 11 14 10 2 -6 -8 -11 -16 -43 -16 -73 -2 -48 0 -52 14 -42 12 10 12 7
-1 -8 -20 -23 -24 -39 -6 -28 7 5 8 3 2 -7 -12 -21 -13 -59 0 -59 6 0 5 -4 -2
-9 -8 -4 -14 -12 -14 -16 0 -4 6 -12 14 -16 7 -5 8 -9 2 -9 -6 0 -11 -7 -11
-15 0 -8 4 -15 9 -15 4 0 8 -5 8 -11 0 -5 -6 -7 -12 -3 -10 6 -10 4 -1 -6 15
-16 110 -23 119 -9 4 6 10 6 19 -1 13 -11 42 -10 62 3 6 4 14 3 17 -2 7 -11
86 -9 103 2 6 4 14 3 18 -2 8 -14 44 -9 50 7 3 8 0 10 -8 6 -9 -6 -9 -4 -1 7
11 14 13 73 3 84 -11 10 -109 10 -113 0 -3 -6 -5 -5 -5 1 -1 11 -53 10 -72 -1
-5 -4 -9 -1 -9 4 0 6 -6 10 -12 9 -7 -2 -14 6 -14 17 -1 11 -3 25 -4 30 -2 9
-2 25 0 80 0 11 -1 43 -3 70 -2 28 -1 59 3 70 5 13 2 24 -9 33 -9 7 -11 11 -5
8 8 -4 11 10 10 44 -2 28 2 50 6 50 5 0 6 6 1 13 -11 17 -11 69 -1 90 5 11 5
17 -2 17 -5 0 -10 8 -11 18 0 11 -2 12 -6 4 -4 -10 -8 -10 -19 -1 -11 9 -14 8
-14 -2 0 -10 -3 -10 -12 -1 -8 8 -15 9 -25 1 -10 -9 -13 -8 -13 1 0 9 -3 10
-13 1 -10 -8 -17 -7 -25 1 -9 9 -12 9 -13 -2z"/>
<path d="M5409 2660 c-11 -7 -16 -26 -18 -65 -1 -37 2 -54 9 -50 5 3 10 1 10
-4 0 -6 -4 -11 -10 -11 -6 0 -9 -46 -9 -115 0 -70 4 -113 10 -110 5 4 9 1 9
-4 0 -6 -4 -11 -10 -11 -6 0 -9 -46 -9 -115 0 -87 3 -114 12 -108 8 4 7 1 -1
-10 -8 -9 -12 -26 -10 -39 2 -18 10 -23 41 -24 20 -1 37 2 37 7 0 5 5 9 11 9
5 0 7 -4 4 -10 -7 -11 25 -13 40 -2 12 9 13 52 1 71 -6 10 -5 12 2 7 8 -5 12
0 12 13 0 12 -6 21 -12 21 -10 0 -10 2 -1 8 13 8 12 79 -2 101 -5 10 -4 12 3
7 8 -5 11 3 8 23 -3 32 1 35 28 25 8 -3 12 -12 9 -21 -4 -11 -2 -14 5 -9 7 4
12 1 12 -9 0 -8 6 -18 14 -21 8 -3 12 -12 9 -20 -3 -8 -1 -14 4 -14 5 0 15
-16 22 -35 7 -19 17 -35 22 -35 5 0 9 -5 9 -12 0 -6 10 -23 23 -36 12 -14 15
-21 8 -17 -9 5 -5 -5 8 -23 22 -31 39 -37 53 -17 5 6 8 6 8 -1 0 -6 23 -11 59
-11 47 0 58 3 57 15 -2 9 -8 18 -14 20 -7 2 -10 8 -6 13 3 5 0 9 -6 9 -6 0 -9
4 -5 9 3 5 -2 16 -10 24 -8 9 -15 23 -15 32 0 10 -5 13 -12 9 -8 -5 -9 -2 -5
9 3 10 3 17 -2 17 -4 0 -16 17 -27 38 -10 20 -22 39 -25 42 -3 3 -12 20 -20
38 -8 17 -17 32 -21 32 -5 0 -8 7 -8 15 0 8 -5 15 -10 15 -7 0 -7 6 -1 19 6
10 7 21 4 25 -3 3 -1 6 5 6 6 0 9 7 5 17 -5 12 -3 14 7 8 10 -6 12 -3 8 13 -4
12 -2 20 2 17 9 -6 40 50 40 72 0 7 4 13 9 13 5 0 12 7 15 16 4 10 2 13 -7 8
-12 -8 21 36 37 47 5 4 5 12 2 18 -4 6 -2 11 4 11 6 0 8 5 5 10 -3 6 0 10 7
10 7 0 4 6 -7 12 -27 16 -44 18 -51 6 -4 -6 -9 -5 -14 3 -7 10 -11 10 -24 0
-13 -11 -16 -11 -16 0 0 12 -2 12 -9 1 -4 -8 -12 -14 -17 -15 -5 -1 -8 -8 -8
-14 1 -7 -1 -11 -5 -9 -11 7 -28 -27 -26 -51 1 -15 -3 -20 -14 -15 -9 3 -13 2
-9 -3 4 -4 -1 -20 -12 -35 -11 -15 -17 -30 -13 -34 3 -3 1 -6 -6 -6 -7 0 -10
-4 -6 -9 3 -5 -1 -16 -10 -24 -8 -8 -16 -21 -17 -28 -4 -18 -28 -43 -34 -36
-10 9 -11 72 -3 95 7 18 5 24 -14 32 -17 7 -18 9 -4 9 20 1 24 50 6 83 -6 12
-7 18 -1 14 6 -3 9 5 8 19 0 15 -6 23 -13 21 -7 -3 -15 -1 -19 5 -4 7 -10 6
-19 -1 -10 -8 -15 -8 -20 0 -5 8 -10 8 -20 0 -8 -7 -14 -7 -17 -1 -2 6 -9 6
-19 1z"/>
<path d="M3300 2129 c0 -5 -6 -6 -13 -3 -16 6 -36 -16 -42 -45 -2 -12 -7 -26
-10 -31 -3 -6 -1 -10 4 -10 6 0 11 -7 11 -15 0 -8 7 -15 15 -15 8 0 15 -5 15
-11 0 -5 5 -7 10 -4 6 3 10 1 10 -6 0 -8 5 -7 17 2 12 10 15 10 9 1 -6 -10 -2
-10 18 0 15 6 24 13 22 15 -2 3 4 13 14 23 27 27 5 98 -26 86 -8 -3 -13 0 -11
6 1 6 -8 11 -20 13 -13 1 -23 -2 -23 -6z"/>
<path d="M5975 2130 c-23 -8 -53 -40 -39 -40 5 0 2 -5 -6 -10 -11 -7 -11 -10
-2 -10 7 0 10 -5 7 -10 -10 -17 5 -52 21 -46 8 3 13 0 11 -7 -1 -7 8 -12 20
-11 12 0 20 -3 17 -8 -3 -4 0 -8 5 -8 6 0 11 5 11 11 0 5 4 8 9 5 13 -8 44 31
35 45 -4 8 -3 10 4 5 15 -9 15 14 2 49 -5 14 -14 24 -19 21 -5 -4 -11 -2 -13
4 -4 14 -39 19 -63 10z"/>
<path d="M7862 2126 c-13 -7 -19 -15 -16 -19 4 -4 -1 -7 -12 -7 -16 0 -17 -2
-4 -10 10 -7 11 -10 2 -10 -18 0 -7 -52 15 -68 38 -28 50 -31 77 -17 48 25 64
59 43 93 -5 6 -5 12 0 12 4 0 -2 7 -13 15 -30 20 -66 25 -92 11z"/>
</g>
</svg>
